<svg width="512" height="512" viewBox="0 0 512 512" fill="none" xmlns="http://www.w3.org/2000/svg">
<path d="M426.055 192.814C428.316 198.967 426.408 205.826 421.532 210.211L390.935 238.073C391.713 243.943 392.137 249.954 392.137 256.035C392.137 262.117 391.713 268.128 390.935 273.997L421.532 301.86C426.408 306.244 428.316 313.104 426.055 319.256C422.946 327.672 419.2 335.733 414.89 343.512L411.569 349.24C406.905 357.019 401.676 364.374 395.952 371.304C391.783 376.396 384.858 378.093 378.64 376.113L339.281 363.596C329.812 370.88 319.354 376.961 308.19 381.558L299.357 421.937C297.944 428.373 292.997 433.464 286.496 434.525C276.745 436.151 266.711 437 256.465 437C246.219 437 236.185 436.151 226.433 434.525C219.932 433.464 214.986 428.373 213.573 421.937L204.74 381.558C193.575 376.961 183.117 370.88 173.648 363.596L134.36 376.183C128.142 378.163 121.217 376.396 117.048 371.375C111.324 364.444 106.095 357.09 101.431 349.311L98.11 343.583C93.7996 335.804 90.0544 327.742 86.9453 319.327C84.6841 313.175 86.592 306.315 91.4677 301.931L122.065 274.068C121.287 268.128 120.863 262.117 120.863 256.035C120.863 249.954 121.287 243.943 122.065 238.073L91.4677 210.211C86.592 205.826 84.6841 198.967 86.9453 192.814C90.0544 184.399 93.7996 176.337 98.11 168.559L101.431 162.83C106.095 155.052 111.324 147.697 117.048 140.767C121.217 135.675 128.142 133.978 134.36 135.958L173.719 148.475C183.188 141.191 193.646 135.109 204.81 130.513L213.643 90.1334C215.056 83.6982 220.003 78.6066 226.504 77.5458C236.255 75.8486 246.289 75 256.535 75C266.781 75 276.815 75.8486 286.567 77.4751C293.068 78.5358 298.014 83.6275 299.427 90.0627L308.26 130.442C319.425 135.039 329.883 141.12 339.352 148.404L378.711 135.887C384.929 133.907 391.854 135.675 396.023 140.696C401.747 147.626 406.976 154.981 411.64 162.76L414.961 168.488C419.271 176.267 423.016 184.328 426.125 192.744L426.055 192.814ZM256.535 312.609C287.768 312.609 313.065 287.292 313.065 256.035C313.065 224.778 287.768 199.462 256.535 199.462C225.302 199.462 200.005 224.778 200.005 256.035C200.005 287.292 225.302 312.609 256.535 312.609Z" fill="#FFD900"/>
</svg>
