<svg width="512" height="512" viewBox="0 0 512 512" fill="none" xmlns="http://www.w3.org/2000/svg">
<g clip-path="url(#clip0_401_253)">
<path d="M256 424C348.794 424 424 348.794 424 256C424 163.206 348.794 88 256 88C163.206 88 88 163.206 88 256C88 348.794 163.206 424 256 424ZM229.75 308.5H245.5V266.5H229.75C221.022 266.5 214 259.478 214 250.75C214 242.022 221.022 235 229.75 235H261.25C269.978 235 277 242.022 277 250.75V308.5H282.25C290.978 308.5 298 315.522 298 324.25C298 332.978 290.978 340 282.25 340H229.75C221.022 340 214 332.978 214 324.25C214 315.522 221.022 308.5 229.75 308.5ZM256 214C244.384 214 235 204.616 235 193C235 181.384 244.384 172 256 172C267.616 172 277 181.384 277 193C277 204.616 267.616 214 256 214Z" fill="white"/>
</g>
<defs>
<clipPath id="clip0_401_253">
<rect width="336" height="336" fill="white" transform="translate(88 88)"/>
</clipPath>
</defs>
</svg>
