<svg width="512" height="512" viewBox="0 0 512 512" fill="none" xmlns="http://www.w3.org/2000/svg">
<path d="M405.808 90.7101C412.496 95.3445 416.005 103.355 414.747 111.366L372.367 386.782C371.374 393.204 367.467 398.832 361.772 402.01C356.077 405.188 349.256 405.585 343.23 403.069L259.595 368.311L233.041 417.634C229.598 424.056 222.248 427.3 215.162 425.513C208.077 423.725 203.11 417.369 203.11 410.087V346.529C203.11 343.02 204.302 339.578 206.488 336.797L315.948 196.043C317.603 191.343 311.644 186.576 307.339 190.482L188.807 297.669L167.617 316.803C161.525 322.298 152.85 323.821 145.235 320.643L88.9483 297.206C81.5317 294.094 76.499 287.076 76.0355 278.999C75.572 270.922 79.6776 263.309 86.6968 259.27L383.359 89.7832C390.445 85.7446 399.186 86.1419 405.874 90.7101H405.808Z" fill="white"/>
</svg>
