<svg width="512" height="512" viewBox="0 0 512 512" fill="none" xmlns="http://www.w3.org/2000/svg">
<path d="M256.5 118.781C180.424 118.781 118.781 180.424 118.781 256.5V282.984C118.781 291.79 111.697 298.875 102.891 298.875C94.0846 298.875 87 291.79 87 282.984V256.5C87 162.878 162.878 87 256.5 87C350.122 87 426 162.878 426 256.5V351.91C426 384.088 399.913 410.176 367.668 410.176L294.638 410.109C289.142 419.578 278.879 426 267.094 426H245.906C228.36 426 214.125 411.765 214.125 394.219C214.125 376.673 228.36 362.438 245.906 362.438H267.094C278.879 362.438 289.142 368.86 294.638 378.328L367.734 378.394C382.367 378.394 394.219 366.543 394.219 351.91V256.5C394.219 180.424 332.576 118.781 256.5 118.781ZM182.344 224.719H192.938C204.657 224.719 214.125 234.187 214.125 245.906V320.062C214.125 331.782 204.657 341.25 192.938 341.25H182.344C158.971 341.25 139.969 322.247 139.969 298.875V267.094C139.969 243.721 158.971 224.719 182.344 224.719ZM330.656 224.719C354.029 224.719 373.031 243.721 373.031 267.094V298.875C373.031 322.247 354.029 341.25 330.656 341.25H320.062C308.343 341.25 298.875 331.782 298.875 320.062V245.906C298.875 234.187 308.343 224.719 320.062 224.719H330.656Z" fill="black"/>
</svg>
