<svg width="512" height="512" viewBox="0 0 512 512" fill="none" xmlns="http://www.w3.org/2000/svg">
<path d="M255.834 99C150.981 99 66.0209 167.786 66.0209 252.679C66.0209 287.869 80.7848 320.098 105.256 345.92C94.2215 375.104 71.2413 399.767 70.8705 400.04C65.9578 405.212 64.6601 412.785 67.4409 419.25C70.3149 425.715 76.664 430 83.7976 430C129.402 430 164.699 410.975 186.945 395.829C207.708 402.515 231.586 406.357 255.834 406.357C360.687 406.357 445 337.549 445 252.679C445 167.808 360.687 99 255.834 99ZM255.908 370.893C236.072 370.893 216.518 367.845 197.787 361.938L180.917 356.674L166.457 366.833C155.89 374.31 141.333 382.629 123.818 388.259C129.287 379.305 134.474 369.234 138.56 358.521L146.435 337.833L131.145 321.675C117.775 307.427 101.646 283.858 101.646 252.679C101.646 187.476 170.795 134.464 255.886 134.464C340.977 134.464 410.126 187.476 410.126 252.679C410.126 317.881 340.962 370.893 255.908 370.893Z" fill="white"/>
</svg>
