<svg width="512" height="512" viewBox="0 0 512 512" fill="none" xmlns="http://www.w3.org/2000/svg">
<g clip-path="url(#clip0_305_255)">
<path d="M287.714 288.281H224.286C160.064 288.281 108 340.455 108 404.812C108 416.512 117.468 426 129.143 426H382.857C394.532 426 404 416.512 404 404.812C404 340.455 351.936 288.281 287.714 288.281ZM140.368 394.219C145.588 352.44 181.207 320.062 224.286 320.062H287.714C330.766 320.062 366.405 352.473 371.625 394.219H140.368ZM256 256.5C302.706 256.5 340.571 218.555 340.571 171.75C340.571 124.945 302.706 87 256 87C209.294 87 171.429 124.945 171.429 171.75C171.429 218.561 209.287 256.5 256 256.5ZM256 118.781C285.144 118.781 308.857 142.544 308.857 171.75C308.857 200.956 285.144 224.719 256 224.719C226.856 224.719 203.143 200.949 203.143 171.75C203.143 142.544 226.862 118.781 256 118.781Z" fill="white"/>
</g>
<defs>
<clipPath id="clip0_305_255">
<rect width="296" height="339" fill="white" transform="translate(108 87)"/>
</clipPath>
</defs>
</svg>
