<svg width="1770" height="1770" viewBox="0 0 1770 1770" fill="none" xmlns="http://www.w3.org/2000/svg">
<g clip-path="url(#clip0_203_13)">
<rect width="1770" height="1770" fill="white"/>
<rect width="1770" height="1770" fill="#7F00FF"/>
<path fill-rule="evenodd" clip-rule="evenodd" d="M390.989 885C390.989 612.165 612.165 390.989 885 390.989C1157.83 390.989 1379.01 612.165 1379.01 885C1379.01 1157.83 1157.83 1379.01 885 1379.01C612.165 1379.01 390.989 1157.83 390.989 885ZM885 289C555.838 289 289 555.838 289 885C289 1214.16 555.838 1481 885 1481C1214.16 1481 1481 1214.16 1481 885C1481 555.838 1214.16 289 885 289ZM884.999 951.93C921.964 951.93 951.93 921.964 951.93 885C951.93 848.035 921.964 818.069 884.999 818.069C848.035 818.069 818.069 848.035 818.069 885C818.069 921.964 848.035 951.93 884.999 951.93ZM885 569.471C710.738 569.471 569.471 710.738 569.471 885C569.471 1059.26 710.738 1200.53 885 1200.53C1059.26 1200.53 1200.53 1059.26 1200.53 885C1200.53 710.738 1059.26 569.471 885 569.471ZM467.481 885C467.481 654.411 654.411 467.482 885 467.482C1115.59 467.482 1302.52 654.411 1302.52 885C1302.52 1115.59 1115.59 1302.52 885 1302.52C654.411 1302.52 467.481 1115.59 467.481 885ZM747.95 885C747.95 809.311 809.309 747.952 884.999 747.952C960.688 747.952 1022.05 809.311 1022.05 885C1022.05 960.69 960.688 1022.05 884.999 1022.05C809.309 1022.05 747.95 960.69 747.95 885ZM884.999 645.963C752.982 645.963 645.961 752.984 645.961 885C645.961 1017.02 752.982 1124.04 884.999 1124.04C1017.02 1124.04 1124.04 1017.02 1124.04 885C1124.04 752.984 1017.02 645.963 884.999 645.963Z" fill="white"/>
</g>
<defs>
<clipPath id="clip0_203_13">
<rect width="1770" height="1770" fill="white"/>
</clipPath>
</defs>
</svg>
